<mxfile host="app.diagrams.net" modified="2023-08-26T16:31:29.714Z" agent="Mozilla/5.0 (Windows NT 10.0; Win64; x64; rv:109.0) Gecko/20100101 Firefox/116.0" version="21.6.9" etag="e40peZRvI4zNLI5YNLu2" type="github">
  <diagram name="Page-1" id="nGGG1O_g9MnB79ottD7a">
    <mxGraphModel>
      <root>
        <mxCell id="0" />
        <mxCell id="1" parent="0" />
      </root>
    </mxGraphModel>
  </diagram>
</mxfile>
